<svg xmlns="http://www.w3.org/2000/svg" xmlns:xlink="http://www.w3.org/1999/xlink" width="500" zoomAndPan="magnify" viewBox="0 0 375 43.499998" height="58" preserveAspectRatio="xMidYMid meet" version="1.0"><defs><g/><clipPath id="ae5e84b8d2"><path d="M 19.367188 0.164062 L 22.921875 0.164062 L 22.921875 20.367188 L 19.367188 20.367188 Z M 19.367188 0.164062 " clip-rule="nonzero"/></clipPath><clipPath id="cf14a18e69"><path d="M 20.28125 0.164062 L 22.007812 0.164062 C 22.511719 0.164062 22.921875 0.574219 22.921875 1.078125 L 22.921875 19.445312 C 22.921875 19.949219 22.511719 20.355469 22.007812 20.355469 L 20.28125 20.355469 C 19.777344 20.355469 19.367188 19.949219 19.367188 19.445312 L 19.367188 1.078125 C 19.367188 0.574219 19.777344 0.164062 20.28125 0.164062 Z M 20.28125 0.164062 " clip-rule="nonzero"/></clipPath><clipPath id="237c73d4b7"><path d="M 20.28125 0.164062 L 22.007812 0.164062 C 22.511719 0.164062 22.921875 0.574219 22.921875 1.078125 L 22.921875 19.445312 C 22.921875 19.949219 22.511719 20.355469 22.007812 20.355469 L 20.28125 20.355469 C 19.777344 20.355469 19.367188 19.949219 19.367188 19.445312 L 19.367188 1.078125 C 19.367188 0.574219 19.777344 0.164062 20.28125 0.164062 Z M 20.28125 0.164062 " clip-rule="nonzero"/></clipPath><clipPath id="7c749267a8"><path d="M 3.980469 18.265625 L 22.921875 18.265625 L 22.921875 21.820312 L 3.980469 21.820312 Z M 3.980469 18.265625 " clip-rule="nonzero"/></clipPath><clipPath id="5472286eb3"><path d="M 3.980469 20.90625 L 3.980469 19.179688 C 3.980469 18.675781 4.390625 18.265625 4.894531 18.265625 L 22.007812 18.265625 C 22.511719 18.265625 22.921875 18.675781 22.921875 19.179688 L 22.921875 20.90625 C 22.921875 21.410156 22.511719 21.820312 22.007812 21.820312 L 4.894531 21.820312 C 4.390625 21.820312 3.980469 21.410156 3.980469 20.90625 Z M 3.980469 20.90625 " clip-rule="nonzero"/></clipPath><clipPath id="738216296c"><path d="M 3.980469 20.90625 L 3.980469 19.179688 C 3.980469 18.675781 4.390625 18.265625 4.894531 18.265625 L 22.007812 18.265625 C 22.511719 18.265625 22.921875 18.675781 22.921875 19.179688 L 22.921875 20.90625 C 22.921875 21.410156 22.511719 21.820312 22.007812 21.820312 L 4.894531 21.820312 C 4.390625 21.820312 3.980469 21.410156 3.980469 20.90625 Z M 3.980469 20.90625 " clip-rule="nonzero"/></clipPath><clipPath id="6308f7c167"><path d="M 7.335938 18.601562 L 23.28125 18.601562 L 23.28125 34.546875 L 7.335938 34.546875 Z M 7.335938 18.601562 " clip-rule="nonzero"/></clipPath><clipPath id="68add64b66"><path d="M 21.09375 18.265625 L 23.605469 20.78125 L 9.527344 34.859375 L 7.011719 32.347656 Z M 21.09375 18.265625 " clip-rule="nonzero"/></clipPath><clipPath id="8380a85cd1"><path d="M 21.738281 18.914062 L 22.960938 20.132812 C 23.316406 20.492188 23.316406 21.070312 22.960938 21.425781 L 10.175781 34.210938 C 9.820312 34.566406 9.238281 34.566406 8.882812 34.210938 L 7.660156 32.988281 C 7.304688 32.632812 7.304688 32.054688 7.660156 31.699219 L 20.445312 18.914062 C 20.804688 18.554688 21.382812 18.554688 21.738281 18.914062 Z M 21.738281 18.914062 " clip-rule="nonzero"/></clipPath><clipPath id="247951f311"><path d="M 21.09375 18.265625 L 23.605469 20.78125 L 9.527344 34.859375 L 7.011719 32.347656 Z M 21.09375 18.265625 " clip-rule="nonzero"/></clipPath><clipPath id="7a6c188be1"><path d="M 21.738281 18.914062 L 22.960938 20.132812 C 23.316406 20.492188 23.316406 21.070312 22.960938 21.425781 L 10.175781 34.210938 C 9.820312 34.566406 9.238281 34.566406 8.882812 34.210938 L 7.660156 32.988281 C 7.304688 32.632812 7.304688 32.054688 7.660156 31.699219 L 20.445312 18.914062 C 20.804688 18.554688 21.382812 18.554688 21.738281 18.914062 Z M 21.738281 18.914062 " clip-rule="nonzero"/></clipPath><clipPath id="f2cb358bbf"><path d="M 22.863281 21.152344 L 26.417969 21.152344 L 26.417969 41.355469 L 22.863281 41.355469 Z M 22.863281 21.152344 " clip-rule="nonzero"/></clipPath><clipPath id="2b9eacc9eb"><path d="M 25.503906 41.355469 L 23.773438 41.355469 C 23.269531 41.355469 22.863281 40.949219 22.863281 40.441406 L 22.863281 22.078125 C 22.863281 21.574219 23.269531 21.164062 23.773438 21.164062 L 25.503906 21.164062 C 26.007812 21.164062 26.417969 21.574219 26.417969 22.078125 L 26.417969 40.441406 C 26.417969 40.949219 26.007812 41.355469 25.503906 41.355469 Z M 25.503906 41.355469 " clip-rule="nonzero"/></clipPath><clipPath id="6daec3c1d2"><path d="M 25.503906 41.355469 L 23.773438 41.355469 C 23.269531 41.355469 22.863281 40.949219 22.863281 40.441406 L 22.863281 22.078125 C 22.863281 21.574219 23.269531 21.164062 23.773438 21.164062 L 25.503906 21.164062 C 26.007812 21.164062 26.417969 21.574219 26.417969 22.078125 L 26.417969 40.441406 C 26.417969 40.949219 26.007812 41.355469 25.503906 41.355469 Z M 25.503906 41.355469 " clip-rule="nonzero"/></clipPath><clipPath id="38182eeac5"><path d="M 22.859375 19.699219 L 41.800781 19.699219 L 41.800781 23.253906 L 22.859375 23.253906 Z M 22.859375 19.699219 " clip-rule="nonzero"/></clipPath><clipPath id="004ebe9bf0"><path d="M 41.800781 20.613281 L 41.800781 22.34375 C 41.800781 22.847656 41.390625 23.253906 40.886719 23.253906 L 23.773438 23.253906 C 23.269531 23.253906 22.863281 22.847656 22.863281 22.34375 L 22.863281 20.613281 C 22.863281 20.109375 23.269531 19.699219 23.773438 19.699219 L 40.886719 19.699219 C 41.390625 19.699219 41.800781 20.109375 41.800781 20.613281 Z M 41.800781 20.613281 " clip-rule="nonzero"/></clipPath><clipPath id="4b557fc409"><path d="M 41.800781 20.613281 L 41.800781 22.34375 C 41.800781 22.847656 41.390625 23.253906 40.886719 23.253906 L 23.773438 23.253906 C 23.269531 23.253906 22.863281 22.847656 22.863281 22.34375 L 22.863281 20.613281 C 22.863281 20.109375 23.269531 19.699219 23.773438 19.699219 L 40.886719 19.699219 C 41.390625 19.699219 41.800781 20.109375 41.800781 20.613281 Z M 41.800781 20.613281 " clip-rule="nonzero"/></clipPath><clipPath id="0396bbcf5d"><path d="M 22.503906 7 L 38.449219 7 L 38.449219 22.921875 L 22.503906 22.921875 Z M 22.503906 7 " clip-rule="nonzero"/></clipPath><clipPath id="ac60a96c35"><path d="M 24.691406 23.253906 L 22.175781 20.742188 L 36.257812 6.660156 L 38.769531 9.175781 Z M 24.691406 23.253906 " clip-rule="nonzero"/></clipPath><clipPath id="3dce276dad"><path d="M 24.046875 22.609375 L 22.824219 21.386719 C 22.46875 21.03125 22.46875 20.453125 22.824219 20.09375 L 35.609375 7.3125 C 35.964844 6.953125 36.542969 6.953125 36.898438 7.3125 L 38.121094 8.53125 C 38.476562 8.890625 38.476562 9.46875 38.121094 9.824219 L 25.335938 22.609375 C 24.980469 22.964844 24.402344 22.964844 24.046875 22.609375 Z M 24.046875 22.609375 " clip-rule="nonzero"/></clipPath><clipPath id="dee373707f"><path d="M 24.691406 23.253906 L 22.175781 20.742188 L 36.257812 6.660156 L 38.769531 9.175781 Z M 24.691406 23.253906 " clip-rule="nonzero"/></clipPath><clipPath id="2b45d885ee"><path d="M 24.046875 22.609375 L 22.824219 21.386719 C 22.46875 21.03125 22.46875 20.453125 22.824219 20.09375 L 35.609375 7.3125 C 35.964844 6.953125 36.542969 6.953125 36.898438 7.3125 L 38.121094 8.53125 C 38.476562 8.890625 38.476562 9.46875 38.121094 9.824219 L 25.335938 22.609375 C 24.980469 22.964844 24.402344 22.964844 24.046875 22.609375 Z M 24.046875 22.609375 " clip-rule="nonzero"/></clipPath><clipPath id="4c3ab07545"><path d="M 269.917969 9.246094 L 285.675781 9.246094 L 285.675781 31.707031 L 269.917969 31.707031 Z M 269.917969 9.246094 " clip-rule="nonzero"/></clipPath><clipPath id="ef1dc1e7f4"><path d="M 316 9.246094 L 331 9.246094 L 331 32 L 316 32 Z M 316 9.246094 " clip-rule="nonzero"/></clipPath><clipPath id="bc0239a6ba"><path d="M 349 15 L 372.867188 15 L 372.867188 32 L 349 32 Z M 349 15 " clip-rule="nonzero"/></clipPath><clipPath id="a8a558cb1f"><path d="M 243 0 L 246 0 L 246 43.003906 L 243 43.003906 Z M 243 0 " clip-rule="nonzero"/></clipPath><clipPath id="1fb2ea6570"><rect x="0" width="169" y="0" height="33"/></clipPath></defs><g clip-path="url(#ae5e84b8d2)"><g clip-path="url(#cf14a18e69)"><g clip-path="url(#237c73d4b7)"><path fill="#ffffff" d="M 19.367188 0.164062 L 22.921875 0.164062 L 22.921875 20.355469 L 19.367188 20.355469 Z M 19.367188 0.164062 " fill-opacity="1" fill-rule="nonzero"/></g></g></g><g clip-path="url(#7c749267a8)"><g clip-path="url(#5472286eb3)"><g clip-path="url(#738216296c)"><path fill="#ffffff" d="M 3.980469 18.265625 L 22.921875 18.265625 L 22.921875 21.820312 L 3.980469 21.820312 Z M 3.980469 18.265625 " fill-opacity="1" fill-rule="nonzero"/></g></g></g><g clip-path="url(#6308f7c167)"><g clip-path="url(#68add64b66)"><g clip-path="url(#8380a85cd1)"><g clip-path="url(#247951f311)"><g clip-path="url(#7a6c188be1)"><path fill="#ffffff" d="M 21.09375 18.265625 L 23.605469 20.78125 L 9.527344 34.859375 L 7.011719 32.347656 Z M 21.09375 18.265625 " fill-opacity="1" fill-rule="nonzero"/></g></g></g></g></g><g clip-path="url(#f2cb358bbf)"><g clip-path="url(#2b9eacc9eb)"><g clip-path="url(#6daec3c1d2)"><path fill="#ffffff" d="M 22.863281 21.167969 L 26.417969 21.167969 L 26.417969 41.355469 L 22.863281 41.355469 Z M 22.863281 21.167969 " fill-opacity="1" fill-rule="nonzero"/></g></g></g><g clip-path="url(#38182eeac5)"><g clip-path="url(#004ebe9bf0)"><g clip-path="url(#4b557fc409)"><path fill="#ffffff" d="M 22.859375 19.699219 L 41.800781 19.699219 L 41.800781 23.253906 L 22.859375 23.253906 Z M 22.859375 19.699219 " fill-opacity="1" fill-rule="nonzero"/></g></g></g><g clip-path="url(#0396bbcf5d)"><g clip-path="url(#ac60a96c35)"><g clip-path="url(#3dce276dad)"><g clip-path="url(#dee373707f)"><g clip-path="url(#2b45d885ee)"><path fill="#ffffff" d="M 24.691406 23.253906 L 22.175781 20.742188 L 36.257812 6.660156 L 38.769531 9.175781 Z M 24.691406 23.253906 " fill-opacity="1" fill-rule="nonzero"/></g></g></g></g></g><g clip-path="url(#4c3ab07545)"><path fill="#ffffff" d="M 277.851562 31.671875 C 276.277344 31.671875 274.898438 31.363281 273.703125 30.742188 C 272.511719 30.121094 271.589844 29.242188 270.9375 28.105469 C 270.289062 26.96875 269.964844 25.667969 269.964844 24.191406 L 269.964844 16.558594 C 269.964844 15.066406 270.289062 13.753906 270.9375 12.628906 C 271.589844 11.503906 272.511719 10.632812 273.703125 10.011719 C 274.898438 9.390625 276.277344 9.082031 277.851562 9.082031 C 279.398438 9.082031 280.765625 9.386719 281.949219 9.996094 C 283.132812 10.605469 284.050781 11.4375 284.699219 12.488281 C 285.347656 13.539062 285.671875 14.726562 285.671875 16.050781 L 285.671875 16.179688 C 285.671875 16.515625 285.503906 16.683594 285.167969 16.683594 L 282.5625 16.683594 C 282.414062 16.683594 282.292969 16.660156 282.199219 16.605469 C 282.105469 16.554688 282.058594 16.484375 282.058594 16.398438 L 282.058594 16.148438 C 282.058594 15.011719 281.675781 14.078125 280.914062 13.339844 C 280.148438 12.605469 279.128906 12.234375 277.851562 12.234375 C 276.570312 12.234375 275.546875 12.621094 274.769531 13.386719 C 273.996094 14.15625 273.609375 15.167969 273.609375 16.433594 L 273.609375 24.320312 C 273.609375 25.582031 274.015625 26.597656 274.832031 27.363281 C 275.652344 28.132812 276.707031 28.515625 278.007812 28.515625 C 279.261719 28.515625 280.253906 28.183594 280.972656 27.523438 C 281.699219 26.859375 282.058594 25.949219 282.058594 24.792969 L 282.058594 22.871094 C 282.058594 22.742188 281.996094 22.679688 281.871094 22.679688 L 278.164062 22.679688 C 277.828125 22.679688 277.660156 22.511719 277.660156 22.175781 L 277.660156 20.09375 C 277.660156 19.753906 277.828125 19.585938 278.164062 19.585938 L 285.167969 19.585938 C 285.503906 19.585938 285.671875 19.753906 285.671875 20.09375 L 285.671875 24.003906 C 285.671875 26.421875 284.964844 28.304688 283.550781 29.652344 C 282.136719 31 280.238281 31.671875 277.851562 31.671875 Z M 277.851562 31.671875 " fill-opacity="1" fill-rule="nonzero"/></g><path fill="#ffffff" d="M 296.507812 15.105469 C 297.113281 15.105469 297.667969 15.222656 298.171875 15.453125 C 298.421875 15.582031 298.515625 15.789062 298.453125 16.085938 L 297.949219 18.703125 C 297.929688 18.871094 297.875 18.976562 297.78125 19.019531 C 297.683594 19.0625 297.542969 19.0625 297.355469 19.019531 C 297.101562 18.933594 296.769531 18.894531 296.351562 18.894531 C 296.097656 18.894531 295.898438 18.90625 295.753906 18.925781 C 294.875 18.964844 294.140625 19.277344 293.554688 19.855469 C 292.96875 20.433594 292.675781 21.1875 292.675781 22.109375 L 292.675781 30.914062 C 292.675781 31.25 292.507812 31.417969 292.171875 31.417969 L 289.535156 31.417969 C 289.199219 31.417969 289.03125 31.25 289.03125 30.914062 L 289.03125 15.800781 C 289.03125 15.464844 289.199219 15.296875 289.535156 15.296875 L 292.171875 15.296875 C 292.507812 15.296875 292.675781 15.464844 292.675781 15.800781 L 292.675781 17.03125 C 292.675781 17.117188 292.695312 17.167969 292.738281 17.1875 C 292.777344 17.210938 292.820312 17.179688 292.863281 17.09375 C 293.742188 15.769531 294.957031 15.105469 296.507812 15.105469 Z M 296.507812 15.105469 " fill-opacity="1" fill-rule="nonzero"/><path fill="#ffffff" d="M 306.652344 15.042969 C 307.972656 15.042969 309.136719 15.273438 310.152344 15.738281 C 311.167969 16.199219 311.949219 16.835938 312.496094 17.648438 C 313.039062 18.457031 313.3125 19.378906 313.3125 20.40625 L 313.3125 30.914062 C 313.3125 31.25 313.144531 31.417969 312.808594 31.417969 L 310.171875 31.417969 C 309.835938 31.417969 309.667969 31.25 309.667969 30.914062 L 309.667969 30.125 C 309.667969 30.042969 309.648438 29.992188 309.605469 29.984375 C 309.5625 29.972656 309.507812 29.988281 309.445312 30.03125 C 308.316406 31.125 306.808594 31.671875 304.925781 31.671875 C 303.375 31.671875 302.101562 31.273438 301.109375 30.472656 C 300.113281 29.671875 299.613281 28.484375 299.613281 26.90625 C 299.613281 25.265625 300.1875 23.988281 301.328125 23.074219 C 302.46875 22.160156 304.074219 21.703125 306.148438 21.703125 L 309.476562 21.703125 C 309.605469 21.703125 309.667969 21.636719 309.667969 21.511719 L 309.667969 20.785156 C 309.667969 19.964844 309.421875 19.328125 308.929688 18.875 C 308.4375 18.425781 307.707031 18.199219 306.746094 18.199219 C 306.011719 18.199219 305.40625 18.328125 304.925781 18.59375 C 304.441406 18.855469 304.117188 19.21875 303.949219 19.683594 C 303.867188 19.976562 303.679688 20.113281 303.386719 20.09375 L 300.558594 19.746094 C 300.390625 19.722656 300.261719 19.675781 300.179688 19.605469 C 300.097656 19.53125 300.066406 19.441406 300.085938 19.335938 C 300.273438 18.074219 300.96875 17.042969 302.175781 16.242188 C 303.378906 15.441406 304.871094 15.042969 306.652344 15.042969 Z M 305.929688 28.769531 C 306.953125 28.769531 307.835938 28.496094 308.566406 27.949219 C 309.300781 27.402344 309.667969 26.707031 309.667969 25.867188 L 309.667969 24.414062 C 309.667969 24.289062 309.605469 24.226562 309.476562 24.226562 L 306.871094 24.226562 C 305.761719 24.226562 304.882812 24.433594 304.230469 24.855469 C 303.582031 25.277344 303.257812 25.878906 303.257812 26.65625 C 303.257812 27.328125 303.511719 27.847656 304.011719 28.21875 C 304.515625 28.585938 305.152344 28.769531 305.929688 28.769531 Z M 305.929688 28.769531 " fill-opacity="1" fill-rule="nonzero"/><g clip-path="url(#ef1dc1e7f4)"><path fill="#ffffff" d="M 324.460938 15.042969 C 326.175781 15.042969 327.542969 15.546875 328.558594 16.558594 C 329.574219 17.566406 330.082031 18.945312 330.082031 20.691406 L 330.082031 30.914062 C 330.082031 31.25 329.917969 31.417969 329.582031 31.417969 L 326.941406 31.417969 C 326.605469 31.417969 326.441406 31.25 326.441406 30.914062 L 326.441406 21.449219 C 326.441406 20.480469 326.164062 19.695312 325.605469 19.097656 C 325.050781 18.5 324.324219 18.199219 323.421875 18.199219 C 322.523438 18.199219 321.796875 18.492188 321.242188 19.082031 C 320.6875 19.671875 320.410156 20.449219 320.410156 21.417969 L 320.410156 30.914062 C 320.410156 31.25 320.242188 31.417969 319.90625 31.417969 L 317.269531 31.417969 C 316.933594 31.417969 316.765625 31.25 316.765625 30.914062 L 316.765625 9.835938 C 316.765625 9.5 316.933594 9.332031 317.269531 9.332031 L 319.90625 9.332031 C 320.242188 9.332031 320.410156 9.5 320.410156 9.835938 L 320.410156 16.652344 C 320.410156 16.738281 320.429688 16.789062 320.46875 16.8125 C 320.511719 16.832031 320.554688 16.808594 320.597656 16.746094 C 321.476562 15.609375 322.765625 15.042969 324.460938 15.042969 Z M 324.460938 15.042969 " fill-opacity="1" fill-rule="nonzero"/></g><path fill="#ffffff" d="M 339.820312 15.042969 C 341.136719 15.042969 342.304688 15.273438 343.320312 15.738281 C 344.335938 16.199219 345.117188 16.835938 345.660156 17.648438 C 346.207031 18.457031 346.480469 19.378906 346.480469 20.40625 L 346.480469 30.914062 C 346.480469 31.25 346.3125 31.417969 345.976562 31.417969 L 343.335938 31.417969 C 343.003906 31.417969 342.835938 31.25 342.835938 30.914062 L 342.835938 30.125 C 342.835938 30.042969 342.8125 29.992188 342.773438 29.984375 C 342.730469 29.972656 342.675781 29.988281 342.613281 30.03125 C 341.484375 31.125 339.976562 31.671875 338.09375 31.671875 C 336.542969 31.671875 335.269531 31.273438 334.273438 30.472656 C 333.28125 29.671875 332.78125 28.484375 332.78125 26.90625 C 332.78125 25.265625 333.351562 23.988281 334.496094 23.074219 C 335.636719 22.160156 337.242188 21.703125 339.316406 21.703125 L 342.644531 21.703125 C 342.773438 21.703125 342.835938 21.636719 342.835938 21.511719 L 342.835938 20.785156 C 342.835938 19.964844 342.589844 19.328125 342.097656 18.875 C 341.605469 18.425781 340.875 18.199219 339.914062 18.199219 C 339.179688 18.199219 338.574219 18.328125 338.09375 18.59375 C 337.609375 18.855469 337.285156 19.21875 337.117188 19.683594 C 337.035156 19.976562 336.84375 20.113281 336.554688 20.09375 L 333.722656 19.746094 C 333.558594 19.722656 333.429688 19.675781 333.347656 19.605469 C 333.261719 19.53125 333.230469 19.441406 333.253906 19.335938 C 333.441406 18.074219 334.136719 17.042969 335.339844 16.242188 C 336.546875 15.441406 338.039062 15.042969 339.820312 15.042969 Z M 339.097656 28.769531 C 340.121094 28.769531 341.003906 28.496094 341.734375 27.949219 C 342.46875 27.402344 342.835938 26.707031 342.835938 25.867188 L 342.835938 24.414062 C 342.835938 24.289062 342.773438 24.226562 342.644531 24.226562 L 340.039062 24.226562 C 338.929688 24.226562 338.050781 24.433594 337.398438 24.855469 C 336.75 25.277344 336.425781 25.878906 336.425781 26.65625 C 336.425781 27.328125 336.675781 27.847656 337.179688 28.21875 C 337.683594 28.585938 338.320312 28.769531 339.097656 28.769531 Z M 339.097656 28.769531 " fill-opacity="1" fill-rule="nonzero"/><g clip-path="url(#bc0239a6ba)"><path fill="#ffffff" d="M 367.113281 15.042969 C 368.726562 15.042969 369.988281 15.53125 370.898438 16.511719 C 371.808594 17.488281 372.265625 18.851562 372.265625 20.597656 L 372.265625 30.914062 C 372.265625 31.25 372.097656 31.417969 371.761719 31.417969 L 369.15625 31.417969 C 368.820312 31.417969 368.652344 31.25 368.652344 30.914062 L 368.652344 21.355469 C 368.652344 20.386719 368.394531 19.617188 367.882812 19.050781 C 367.371094 18.484375 366.683594 18.199219 365.828125 18.199219 C 364.96875 18.199219 364.265625 18.484375 363.722656 19.050781 C 363.175781 19.617188 362.90625 20.375 362.90625 21.320312 L 362.90625 30.914062 C 362.90625 31.25 362.738281 31.417969 362.402344 31.417969 L 359.796875 31.417969 C 359.460938 31.417969 359.292969 31.25 359.292969 30.914062 L 359.292969 21.355469 C 359.292969 20.386719 359.03125 19.617188 358.507812 19.050781 C 357.984375 18.484375 357.292969 18.199219 356.433594 18.199219 C 355.636719 18.199219 354.984375 18.429688 354.46875 18.894531 C 353.957031 19.355469 353.660156 19.988281 353.578125 20.785156 L 353.578125 30.914062 C 353.578125 31.25 353.410156 31.417969 353.074219 31.417969 L 350.433594 31.417969 C 350.101562 31.417969 349.933594 31.25 349.933594 30.914062 L 349.933594 15.800781 C 349.933594 15.464844 350.101562 15.296875 350.433594 15.296875 L 353.074219 15.296875 C 353.410156 15.296875 353.578125 15.464844 353.578125 15.800781 L 353.578125 16.652344 C 353.578125 16.738281 353.601562 16.789062 353.65625 16.8125 C 353.707031 16.832031 353.753906 16.800781 353.796875 16.714844 C 354.695312 15.601562 356.015625 15.042969 357.753906 15.042969 C 358.78125 15.042969 359.675781 15.25 360.4375 15.660156 C 361.203125 16.070312 361.796875 16.675781 362.214844 17.472656 C 362.253906 17.535156 362.300781 17.566406 362.355469 17.566406 C 362.40625 17.566406 362.445312 17.527344 362.464844 17.441406 C 362.945312 16.640625 363.597656 16.042969 364.414062 15.644531 C 365.230469 15.242188 366.128906 15.042969 367.113281 15.042969 Z M 367.113281 15.042969 " fill-opacity="1" fill-rule="nonzero"/></g><g clip-path="url(#a8a558cb1f)"><path stroke-linecap="butt" transform="matrix(0.00000000129412, -0.741477, 0.741477, 0.00000000129412, 243.729802, 42.730644)" fill="none" stroke-linejoin="miter" d="M 0.000235932 1.502337 L 57.63434 1.502337 " stroke="#ffffff" stroke-width="3" stroke-opacity="1" stroke-miterlimit="4"/></g><g transform="matrix(1, 0, 0, 1, 52, 7)"><g clip-path="url(#1fb2ea6570)"><g fill="#ffffff" fill-opacity="1"><g transform="translate(0.782551, 24.998059)"><g><path d="M 3.53125 0 L 3.53125 -22.828125 L 13.734375 -22.828125 C 16.210938 -22.828125 18.09375 -22.265625 19.375 -21.140625 C 20.664062 -20.015625 21.3125 -18.445312 21.3125 -16.4375 C 21.3125 -14.476562 20.664062 -12.898438 19.375 -11.703125 C 18.09375 -10.503906 16.210938 -9.90625 13.734375 -9.90625 L 6.65625 -9.90625 L 6.65625 0 Z M 13.828125 -19.9375 L 6.65625 -19.9375 L 6.65625 -12.796875 L 13.828125 -12.796875 C 15.265625 -12.796875 16.335938 -13.128906 17.046875 -13.796875 C 17.753906 -14.460938 18.109375 -15.320312 18.109375 -16.375 C 18.109375 -17.507812 17.753906 -18.382812 17.046875 -19 C 16.335938 -19.625 15.265625 -19.9375 13.828125 -19.9375 Z M 13.828125 -19.9375 "/></g></g></g><g fill="#ffffff" fill-opacity="1"><g transform="translate(23.423236, 24.998059)"><g><path d="M 20.484375 -2.921875 L 20.484375 0 L 3.53125 0 L 3.53125 -22.828125 L 6.65625 -22.828125 L 6.65625 -2.921875 Z M 20.484375 -2.921875 "/></g></g></g><g fill="#ffffff" fill-opacity="1"><g transform="translate(44.520227, 24.998059)"><g><path d="M 3.53125 0 L 3.53125 -22.828125 L 19.9375 -22.828125 L 19.9375 -19.9375 L 6.625 -19.9375 L 6.625 -13.5625 L 14.46875 -13.5625 L 14.46875 -10.671875 L 6.625 -10.671875 L 6.625 -2.890625 L 21.125 -2.890625 L 21.125 0 Z M 3.53125 0 "/></g></g></g><g fill="#ffffff" fill-opacity="1"><g transform="translate(66.421225, 24.998059)"><g><path d="M 3.53125 0 L 3.53125 -22.828125 L 13.828125 -22.828125 C 16.242188 -22.828125 18.09375 -22.289062 19.375 -21.21875 C 20.664062 -20.144531 21.3125 -18.59375 21.3125 -16.5625 C 21.3125 -14.925781 20.882812 -13.597656 20.03125 -12.578125 C 19.175781 -11.566406 17.957031 -10.890625 16.375 -10.546875 L 22.375 0 L 19 0 L 13.015625 -10.296875 L 6.65625 -10.296875 L 6.65625 0 Z M 13.796875 -19.9375 L 6.65625 -19.9375 L 6.65625 -13.15625 L 13.796875 -13.15625 C 15.191406 -13.15625 16.257812 -13.425781 17 -13.96875 C 17.738281 -14.519531 18.109375 -15.382812 18.109375 -16.5625 C 18.109375 -17.71875 17.738281 -18.566406 17 -19.109375 C 16.257812 -19.660156 15.191406 -19.9375 13.796875 -19.9375 Z M 13.796875 -19.9375 "/></g></g></g><g fill="#ffffff" fill-opacity="1"><g transform="translate(89.962393, 24.998059)"><g><path d="M 12.578125 0.390625 C 10.472656 0.390625 8.648438 -0.125 7.109375 -1.15625 C 5.566406 -2.1875 4.378906 -3.585938 3.546875 -5.359375 C 2.722656 -7.140625 2.3125 -9.160156 2.3125 -11.421875 C 2.3125 -13.671875 2.726562 -15.679688 3.5625 -17.453125 C 4.40625 -19.234375 5.597656 -20.640625 7.140625 -21.671875 C 8.679688 -22.703125 10.492188 -23.21875 12.578125 -23.21875 C 14.648438 -23.21875 16.453125 -22.703125 17.984375 -21.671875 C 19.523438 -20.640625 20.71875 -19.234375 21.5625 -17.453125 C 22.40625 -15.679688 22.828125 -13.671875 22.828125 -11.421875 C 22.828125 -9.160156 22.40625 -7.140625 21.5625 -5.359375 C 20.71875 -3.585938 19.523438 -2.1875 17.984375 -1.15625 C 16.453125 -0.125 14.648438 0.390625 12.578125 0.390625 Z M 12.578125 -2.515625 C 14.097656 -2.515625 15.375 -2.910156 16.40625 -3.703125 C 17.445312 -4.492188 18.238281 -5.5625 18.78125 -6.90625 C 19.332031 -8.257812 19.609375 -9.765625 19.609375 -11.421875 C 19.609375 -13.066406 19.332031 -14.554688 18.78125 -15.890625 C 18.238281 -17.234375 17.445312 -18.304688 16.40625 -19.109375 C 15.375 -19.921875 14.097656 -20.328125 12.578125 -20.328125 C 11.078125 -20.328125 9.800781 -19.925781 8.75 -19.125 C 7.695312 -18.332031 6.894531 -17.257812 6.34375 -15.90625 C 5.800781 -14.5625 5.53125 -13.066406 5.53125 -11.421875 C 5.53125 -9.742188 5.800781 -8.226562 6.34375 -6.875 C 6.894531 -5.53125 7.695312 -4.46875 8.75 -3.6875 C 9.800781 -2.90625 11.078125 -2.515625 12.578125 -2.515625 Z M 12.578125 -2.515625 "/></g></g></g><g fill="#ffffff" fill-opacity="1"><g transform="translate(114.500531, 24.998059)"><g><path d="M 8.328125 -22.828125 L 15.375 -4.625 L 22.375 -22.828125 L 27.046875 -22.828125 L 27.046875 0 L 24.078125 0 L 24.078125 -19.875 L 16.296875 0.125 L 14.15625 0.125 L 6.4375 -19.671875 L 6.4375 0 L 3.53125 0 L 3.53125 -22.828125 Z M 8.328125 -22.828125 "/></g></g></g><g fill="#ffffff" fill-opacity="1"><g transform="translate(144.47375, 24.998059)"><g><path d="M 19.578125 0 L 17.328125 -5.5 L 6.40625 -5.5 L 4.140625 0 L 1.0625 0 L 10.578125 -22.953125 L 13.34375 -22.953125 L 22.859375 0 Z M 7.59375 -8.328125 L 16.140625 -8.328125 L 11.859375 -18.75 Z M 7.59375 -8.328125 "/></g></g></g></g></g></svg>