<svg xmlns="http://www.w3.org/2000/svg" xmlns:xlink="http://www.w3.org/1999/xlink" width="1300" zoomAndPan="magnify" viewBox="0 0 974.88 214.499994" height="286" preserveAspectRatio="xMidYMid meet" version="1.0"><defs><g/><clipPath id="6747d14322"><path d="M 1.074219 0 L 973.6875 0 L 973.6875 214 L 1.074219 214 Z M 1.074219 0 " clip-rule="nonzero"/></clipPath><clipPath id="2b49d7bca0"><path d="M 4 0 L 152 0 L 152 210 L 4 210 Z M 4 0 " clip-rule="nonzero"/></clipPath><clipPath id="5ac84706cd"><rect x="0" width="973" y="0" height="214"/></clipPath></defs><g clip-path="url(#6747d14322)"><g transform="matrix(1, 0, 0, 1, 1, 0)"><g clip-path="url(#5ac84706cd)"><g clip-path="url(#2b49d7bca0)"><g fill="#ffffff" fill-opacity="1"><g transform="translate(-12.066428, 207.306144)"><g><path d="M 90.5625 2.359375 C 75.8125 2.359375 62.832031 -0.539062 51.625 -6.34375 C 40.414062 -12.144531 31.757812 -20.351562 25.65625 -30.96875 C 19.5625 -41.59375 16.515625 -53.789062 16.515625 -67.5625 L 16.515625 -138.9375 C 16.515625 -152.90625 19.5625 -165.148438 25.65625 -175.671875 C 31.757812 -186.191406 40.414062 -194.351562 51.625 -200.15625 C 62.832031 -205.957031 75.8125 -208.859375 90.5625 -208.859375 C 105.113281 -208.859375 117.945312 -206.003906 129.0625 -200.296875 C 140.175781 -194.597656 148.78125 -186.832031 154.875 -177 C 160.96875 -167.164062 164.015625 -156.054688 164.015625 -143.671875 L 164.015625 -142.484375 C 164.015625 -139.335938 162.441406 -137.765625 159.296875 -137.765625 L 134.8125 -137.765625 C 133.4375 -137.765625 132.304688 -138.007812 131.421875 -138.5 C 130.535156 -138.988281 130.09375 -139.628906 130.09375 -140.421875 L 130.09375 -142.78125 C 130.09375 -153.394531 126.503906 -162.144531 119.328125 -169.03125 C 112.148438 -175.914062 102.5625 -179.359375 90.5625 -179.359375 C 78.5625 -179.359375 68.921875 -175.769531 61.640625 -168.59375 C 54.367188 -161.414062 50.734375 -151.925781 50.734375 -140.125 L 50.734375 -66.375 C 50.734375 -54.570312 54.566406 -45.082031 62.234375 -37.90625 C 69.910156 -30.726562 79.847656 -27.140625 92.046875 -27.140625 C 103.835938 -27.140625 113.125 -30.234375 119.90625 -36.421875 C 126.695312 -42.617188 130.09375 -51.128906 130.09375 -61.953125 L 130.09375 -79.9375 C 130.09375 -81.125 129.503906 -81.71875 128.328125 -81.71875 L 93.515625 -81.71875 C 90.367188 -81.71875 88.796875 -83.289062 88.796875 -86.4375 L 88.796875 -105.90625 C 88.796875 -109.050781 90.367188 -110.625 93.515625 -110.625 L 159.296875 -110.625 C 162.441406 -110.625 164.015625 -109.050781 164.015625 -105.90625 L 164.015625 -69.328125 C 164.015625 -46.710938 157.375 -29.109375 144.09375 -16.515625 C 130.820312 -3.929688 112.976562 2.359375 90.5625 2.359375 Z M 90.5625 2.359375 "/></g></g></g></g><g fill="#ffffff" fill-opacity="1"><g transform="translate(165.20901, 207.306144)"><g><path d="M 88.5 -152.515625 C 94.207031 -152.515625 99.421875 -151.429688 104.140625 -149.265625 C 106.492188 -148.085938 107.378906 -146.125 106.796875 -143.375 L 102.0625 -118.890625 C 101.875 -117.316406 101.335938 -116.332031 100.453125 -115.9375 C 99.566406 -115.539062 98.238281 -115.539062 96.46875 -115.9375 C 94.101562 -116.71875 90.957031 -117.109375 87.03125 -117.109375 C 84.664062 -117.109375 82.796875 -117.007812 81.421875 -116.8125 C 73.160156 -116.425781 66.273438 -113.523438 60.765625 -108.109375 C 55.265625 -102.703125 52.515625 -95.675781 52.515625 -87.03125 L 52.515625 -4.71875 C 52.515625 -1.570312 50.941406 0 47.796875 0 L 23.015625 0 C 19.867188 0 18.296875 -1.570312 18.296875 -4.71875 L 18.296875 -146.03125 C 18.296875 -149.175781 19.867188 -150.75 23.015625 -150.75 L 47.796875 -150.75 C 50.941406 -150.75 52.515625 -149.175781 52.515625 -146.03125 L 52.515625 -134.515625 C 52.515625 -133.734375 52.707031 -133.242188 53.09375 -133.046875 C 53.488281 -132.847656 53.882812 -133.144531 54.28125 -133.9375 C 62.539062 -146.320312 73.945312 -152.515625 88.5 -152.515625 Z M 88.5 -152.515625 "/></g></g></g><g fill="#ffffff" fill-opacity="1"><g transform="translate(273.166852, 207.306144)"><g><path d="M 75.8125 -153.109375 C 88.207031 -153.109375 99.171875 -150.941406 108.703125 -146.609375 C 118.242188 -142.285156 125.570312 -136.335938 130.6875 -128.765625 C 135.800781 -121.191406 138.359375 -112.585938 138.359375 -102.953125 L 138.359375 -4.71875 C 138.359375 -1.570312 136.785156 0 133.640625 0 L 108.859375 0 C 105.710938 0 104.140625 -1.570312 104.140625 -4.71875 L 104.140625 -12.09375 C 104.140625 -12.882812 103.941406 -13.328125 103.546875 -13.421875 C 103.148438 -13.515625 102.65625 -13.367188 102.0625 -12.984375 C 91.445312 -2.753906 77.289062 2.359375 59.59375 2.359375 C 45.039062 2.359375 33.09375 -1.375 23.75 -8.84375 C 14.40625 -16.320312 9.734375 -27.4375 9.734375 -42.1875 C 9.734375 -57.519531 15.09375 -69.460938 25.8125 -78.015625 C 36.53125 -86.578125 51.625 -90.859375 71.09375 -90.859375 L 102.359375 -90.859375 C 103.546875 -90.859375 104.140625 -91.445312 104.140625 -92.625 L 104.140625 -99.421875 C 104.140625 -107.085938 101.828125 -113.035156 97.203125 -117.265625 C 92.578125 -121.492188 85.742188 -123.609375 76.703125 -123.609375 C 69.816406 -123.609375 64.113281 -122.378906 59.59375 -119.921875 C 55.070312 -117.460938 52.019531 -114.066406 50.4375 -109.734375 C 49.65625 -106.984375 47.890625 -105.707031 45.140625 -105.90625 L 18.578125 -109.15625 C 17.003906 -109.34375 15.820312 -109.78125 15.03125 -110.46875 C 14.25 -111.164062 13.957031 -112.003906 14.15625 -112.984375 C 15.925781 -124.785156 22.460938 -134.421875 33.765625 -141.890625 C 45.078125 -149.367188 59.09375 -153.109375 75.8125 -153.109375 Z M 69.03125 -24.78125 C 78.664062 -24.78125 86.925781 -27.335938 93.8125 -32.453125 C 100.695312 -37.566406 104.140625 -44.054688 104.140625 -51.921875 L 104.140625 -65.484375 C 104.140625 -66.671875 103.546875 -67.265625 102.359375 -67.265625 L 77.875 -67.265625 C 67.457031 -67.265625 59.195312 -65.296875 53.09375 -61.359375 C 47 -57.421875 43.953125 -51.816406 43.953125 -44.546875 C 43.953125 -38.253906 46.3125 -33.382812 51.03125 -29.9375 C 55.75 -26.5 61.75 -24.78125 69.03125 -24.78125 Z M 69.03125 -24.78125 "/></g></g></g><g fill="#ffffff" fill-opacity="1"><g transform="translate(425.664984, 207.306144)"><g><path d="M 90.5625 -153.109375 C 106.6875 -153.109375 119.519531 -148.382812 129.0625 -138.9375 C 138.601562 -129.5 143.375 -116.617188 143.375 -100.296875 L 143.375 -4.71875 C 143.375 -1.570312 141.800781 0 138.65625 0 L 113.875 0 C 110.726562 0 109.15625 -1.570312 109.15625 -4.71875 L 109.15625 -93.21875 C 109.15625 -102.269531 106.546875 -109.597656 101.328125 -115.203125 C 96.117188 -120.804688 89.285156 -123.609375 80.828125 -123.609375 C 72.367188 -123.609375 65.535156 -120.851562 60.328125 -115.34375 C 55.117188 -109.832031 52.515625 -102.554688 52.515625 -93.515625 L 52.515625 -4.71875 C 52.515625 -1.570312 50.941406 0 47.796875 0 L 23.015625 0 C 19.867188 0 18.296875 -1.570312 18.296875 -4.71875 L 18.296875 -201.78125 C 18.296875 -204.925781 19.867188 -206.5 23.015625 -206.5 L 47.796875 -206.5 C 50.941406 -206.5 52.515625 -204.925781 52.515625 -201.78125 L 52.515625 -138.0625 C 52.515625 -137.269531 52.707031 -136.773438 53.09375 -136.578125 C 53.488281 -136.390625 53.882812 -136.585938 54.28125 -137.171875 C 62.539062 -147.796875 74.632812 -153.109375 90.5625 -153.109375 Z M 90.5625 -153.109375 "/></g></g></g><g fill="#ffffff" fill-opacity="1"><g transform="translate(584.652424, 207.306144)"><g><path d="M 75.8125 -153.109375 C 88.207031 -153.109375 99.171875 -150.941406 108.703125 -146.609375 C 118.242188 -142.285156 125.570312 -136.335938 130.6875 -128.765625 C 135.800781 -121.191406 138.359375 -112.585938 138.359375 -102.953125 L 138.359375 -4.71875 C 138.359375 -1.570312 136.785156 0 133.640625 0 L 108.859375 0 C 105.710938 0 104.140625 -1.570312 104.140625 -4.71875 L 104.140625 -12.09375 C 104.140625 -12.882812 103.941406 -13.328125 103.546875 -13.421875 C 103.148438 -13.515625 102.65625 -13.367188 102.0625 -12.984375 C 91.445312 -2.753906 77.289062 2.359375 59.59375 2.359375 C 45.039062 2.359375 33.09375 -1.375 23.75 -8.84375 C 14.40625 -16.320312 9.734375 -27.4375 9.734375 -42.1875 C 9.734375 -57.519531 15.09375 -69.460938 25.8125 -78.015625 C 36.53125 -86.578125 51.625 -90.859375 71.09375 -90.859375 L 102.359375 -90.859375 C 103.546875 -90.859375 104.140625 -91.445312 104.140625 -92.625 L 104.140625 -99.421875 C 104.140625 -107.085938 101.828125 -113.035156 97.203125 -117.265625 C 92.578125 -121.492188 85.742188 -123.609375 76.703125 -123.609375 C 69.816406 -123.609375 64.113281 -122.378906 59.59375 -119.921875 C 55.070312 -117.460938 52.019531 -114.066406 50.4375 -109.734375 C 49.65625 -106.984375 47.890625 -105.707031 45.140625 -105.90625 L 18.578125 -109.15625 C 17.003906 -109.34375 15.820312 -109.78125 15.03125 -110.46875 C 14.25 -111.164062 13.957031 -112.003906 14.15625 -112.984375 C 15.925781 -124.785156 22.460938 -134.421875 33.765625 -141.890625 C 45.078125 -149.367188 59.09375 -153.109375 75.8125 -153.109375 Z M 69.03125 -24.78125 C 78.664062 -24.78125 86.925781 -27.335938 93.8125 -32.453125 C 100.695312 -37.566406 104.140625 -44.054688 104.140625 -51.921875 L 104.140625 -65.484375 C 104.140625 -66.671875 103.546875 -67.265625 102.359375 -67.265625 L 77.875 -67.265625 C 67.457031 -67.265625 59.195312 -65.296875 53.09375 -61.359375 C 47 -57.421875 43.953125 -51.816406 43.953125 -44.546875 C 43.953125 -38.253906 46.3125 -33.382812 51.03125 -29.9375 C 55.75 -26.5 61.75 -24.78125 69.03125 -24.78125 Z M 69.03125 -24.78125 "/></g></g></g><g fill="#ffffff" fill-opacity="1"><g transform="translate(737.150556, 207.306144)"><g><path d="M 179.65625 -153.109375 C 194.800781 -153.109375 206.648438 -148.535156 215.203125 -139.390625 C 223.753906 -130.242188 228.03125 -117.507812 228.03125 -101.1875 L 228.03125 -4.71875 C 228.03125 -1.570312 226.457031 0 223.3125 0 L 198.828125 0 C 195.679688 0 194.109375 -1.570312 194.109375 -4.71875 L 194.109375 -94.109375 C 194.109375 -103.148438 191.695312 -110.328125 186.875 -115.640625 C 182.0625 -120.953125 175.625 -123.609375 167.5625 -123.609375 C 159.5 -123.609375 152.910156 -120.953125 147.796875 -115.640625 C 142.679688 -110.328125 140.125 -103.25 140.125 -94.40625 L 140.125 -4.71875 C 140.125 -1.570312 138.550781 0 135.40625 0 L 110.921875 0 C 107.773438 0 106.203125 -1.570312 106.203125 -4.71875 L 106.203125 -94.109375 C 106.203125 -103.148438 103.742188 -110.328125 98.828125 -115.640625 C 93.910156 -120.953125 87.421875 -123.609375 79.359375 -123.609375 C 71.878906 -123.609375 65.726562 -121.441406 60.90625 -117.109375 C 56.09375 -112.785156 53.296875 -106.890625 52.515625 -99.421875 L 52.515625 -4.71875 C 52.515625 -1.570312 50.941406 0 47.796875 0 L 23.015625 0 C 19.867188 0 18.296875 -1.570312 18.296875 -4.71875 L 18.296875 -146.03125 C 18.296875 -149.175781 19.867188 -150.75 23.015625 -150.75 L 47.796875 -150.75 C 50.941406 -150.75 52.515625 -149.175781 52.515625 -146.03125 L 52.515625 -138.0625 C 52.515625 -137.269531 52.757812 -136.773438 53.25 -136.578125 C 53.738281 -136.390625 54.179688 -136.6875 54.578125 -137.46875 C 63.035156 -147.894531 75.425781 -153.109375 91.75 -153.109375 C 101.382812 -153.109375 109.789062 -151.1875 116.96875 -147.34375 C 124.144531 -143.507812 129.703125 -137.859375 133.640625 -130.390625 C 134.023438 -129.796875 134.460938 -129.5 134.953125 -129.5 C 135.453125 -129.5 135.800781 -129.894531 136 -130.6875 C 140.519531 -138.15625 146.613281 -143.757812 154.28125 -147.5 C 161.957031 -151.238281 170.414062 -153.109375 179.65625 -153.109375 Z M 179.65625 -153.109375 "/></g></g></g></g></g></g></svg>