<svg xmlns="http://www.w3.org/2000/svg" xmlns:xlink="http://www.w3.org/1999/xlink" width="421" zoomAndPan="magnify" viewBox="0 0 315.75 60" height="80" preserveAspectRatio="xMidYMid meet" version="1.0"><defs><g/><clipPath id="07c2f9735e"><path d="M 46.839844 1.121094 L 69.601562 1.121094 L 69.601562 35.628906 L 46.839844 35.628906 Z M 46.839844 1.121094 " clip-rule="nonzero"/></clipPath><clipPath id="a550fb5753"><path d="M 0.839844 0.121094 L 23.601562 0.121094 L 23.601562 34.628906 L 0.839844 34.628906 Z M 0.839844 0.121094 " clip-rule="nonzero"/></clipPath><clipPath id="61a69769d2"><rect x="0" width="24" y="0" height="35"/></clipPath><clipPath id="906ae85033"><path d="M 23.792969 35.632812 L 46.84375 35.632812 L 46.84375 59.035156 L 23.792969 59.035156 Z M 23.792969 35.632812 " clip-rule="nonzero"/></clipPath><clipPath id="1fc85f1f2e"><path d="M 0.792969 0.632812 L 23.84375 0.632812 L 23.84375 24.035156 L 0.792969 24.035156 Z M 0.792969 0.632812 " clip-rule="nonzero"/></clipPath><clipPath id="8181e1127c"><rect x="0" width="24" y="0" height="25"/></clipPath><clipPath id="8a0881f586"><path d="M 1.027344 1.121094 L 23.792969 1.121094 L 23.792969 35.628906 L 1.027344 35.628906 Z M 1.027344 1.121094 " clip-rule="nonzero"/></clipPath><clipPath id="7230022e4e"><path d="M 0.0273438 0.121094 L 22.792969 0.121094 L 22.792969 34.628906 L 0.0273438 34.628906 Z M 0.0273438 0.121094 " clip-rule="nonzero"/></clipPath><clipPath id="d85d9de454"><rect x="0" width="23" y="0" height="35"/></clipPath><clipPath id="cd1447ee3c"><path d="M 92 0.0234375 L 315.5 0.0234375 L 315.5 59.976562 L 92 59.976562 Z M 92 0.0234375 " clip-rule="nonzero"/></clipPath><clipPath id="67914115f4"><rect x="0" width="224" y="0" height="60"/></clipPath></defs><g clip-path="url(#07c2f9735e)"><g transform="matrix(1, 0, 0, 1, 46, 1)"><g clip-path="url(#61a69769d2)"><g clip-path="url(#a550fb5753)"><path fill="#ffffff" d="M 23.601562 0.121094 L 23.601562 34.621094 L 0.839844 34.621094 L 0.839844 0.121094 Z M 23.601562 0.121094 " fill-opacity="1" fill-rule="nonzero"/></g></g></g></g><g clip-path="url(#906ae85033)"><g transform="matrix(1, 0, 0, 1, 23, 35)"><g clip-path="url(#8181e1127c)"><g clip-path="url(#1fc85f1f2e)"><path fill="#ffffff" d="M 23.84375 0.632812 L 23.84375 24.042969 L 0.792969 24.042969 L 0.792969 0.632812 Z M 23.84375 0.632812 " fill-opacity="1" fill-rule="nonzero"/></g></g></g></g><g clip-path="url(#8a0881f586)"><g transform="matrix(1, 0, 0, 1, 1, 1)"><g clip-path="url(#d85d9de454)"><g clip-path="url(#7230022e4e)"><path fill="#ffffff" d="M 22.792969 0.121094 L 22.792969 34.621094 L 0.0273438 34.621094 L 0.0273438 0.121094 Z M 22.792969 0.121094 " fill-opacity="1" fill-rule="nonzero"/></g></g></g></g><g clip-path="url(#cd1447ee3c)"><g transform="matrix(1, 0, 0, 1, 92, -0.000000000000011404)"><g clip-path="url(#67914115f4)"><g fill="#ffffff" fill-opacity="1"><g transform="translate(0.835372, 53.491149)"><g><path d="M 20.546875 0.53125 C 17.203125 0.53125 14.253906 -0.125 11.703125 -1.4375 C 9.160156 -2.75 7.195312 -4.609375 5.8125 -7.015625 C 4.4375 -9.429688 3.75 -12.203125 3.75 -15.328125 L 3.75 -31.515625 C 3.75 -34.679688 4.4375 -37.457031 5.8125 -39.84375 C 7.195312 -42.238281 9.160156 -44.09375 11.703125 -45.40625 C 14.253906 -46.71875 17.203125 -47.375 20.546875 -47.375 C 23.847656 -47.375 26.757812 -46.726562 29.28125 -45.4375 C 31.800781 -44.144531 33.75 -42.382812 35.125 -40.15625 C 36.507812 -37.925781 37.203125 -35.40625 37.203125 -32.59375 L 37.203125 -32.328125 C 37.203125 -31.609375 36.847656 -31.25 36.140625 -31.25 L 30.578125 -31.25 C 30.265625 -31.25 30.007812 -31.304688 29.8125 -31.421875 C 29.613281 -31.535156 29.515625 -31.679688 29.515625 -31.859375 L 29.515625 -32.390625 C 29.515625 -34.796875 28.695312 -36.78125 27.0625 -38.34375 C 25.4375 -39.90625 23.265625 -40.6875 20.546875 -40.6875 C 17.828125 -40.6875 15.640625 -39.867188 13.984375 -38.234375 C 12.335938 -36.609375 11.515625 -34.457031 11.515625 -31.78125 L 11.515625 -15.0625 C 11.515625 -12.382812 12.382812 -10.226562 14.125 -8.59375 C 15.863281 -6.96875 18.113281 -6.15625 20.875 -6.15625 C 23.550781 -6.15625 25.660156 -6.859375 27.203125 -8.265625 C 28.742188 -9.671875 29.515625 -11.597656 29.515625 -14.046875 L 29.515625 -18.140625 C 29.515625 -18.398438 29.378906 -18.53125 29.109375 -18.53125 L 21.21875 -18.53125 C 20.5 -18.53125 20.140625 -18.890625 20.140625 -19.609375 L 20.140625 -24.03125 C 20.140625 -24.738281 20.5 -25.09375 21.21875 -25.09375 L 36.140625 -25.09375 C 36.847656 -25.09375 37.203125 -24.738281 37.203125 -24.03125 L 37.203125 -15.734375 C 37.203125 -10.597656 35.695312 -6.601562 32.6875 -3.75 C 29.675781 -0.894531 25.628906 0.53125 20.546875 0.53125 Z M 20.546875 0.53125 "/></g></g></g><g fill="#ffffff" fill-opacity="1"><g transform="translate(41.058358, 53.491149)"><g><path d="M 20.078125 -34.59375 C 21.367188 -34.59375 22.550781 -34.347656 23.625 -33.859375 C 24.15625 -33.597656 24.351562 -33.15625 24.21875 -32.53125 L 23.15625 -26.96875 C 23.113281 -26.613281 22.988281 -26.390625 22.78125 -26.296875 C 22.582031 -26.210938 22.285156 -26.210938 21.890625 -26.296875 C 21.347656 -26.472656 20.628906 -26.5625 19.734375 -26.5625 C 19.203125 -26.5625 18.78125 -26.539062 18.46875 -26.5 C 16.59375 -26.414062 15.03125 -25.757812 13.78125 -24.53125 C 12.53125 -23.300781 11.90625 -21.703125 11.90625 -19.734375 L 11.90625 -1.078125 C 11.90625 -0.359375 11.550781 0 10.84375 0 L 5.21875 0 C 4.507812 0 4.15625 -0.359375 4.15625 -1.078125 L 4.15625 -33.125 C 4.15625 -33.84375 4.507812 -34.203125 5.21875 -34.203125 L 10.84375 -34.203125 C 11.550781 -34.203125 11.90625 -33.84375 11.90625 -33.125 L 11.90625 -30.515625 C 11.90625 -30.335938 11.953125 -30.222656 12.046875 -30.171875 C 12.140625 -30.128906 12.226562 -30.195312 12.3125 -30.375 C 14.1875 -33.1875 16.773438 -34.59375 20.078125 -34.59375 Z M 20.078125 -34.59375 "/></g></g></g><g fill="#ffffff" fill-opacity="1"><g transform="translate(65.553535, 53.491149)"><g><path d="M 17.203125 -34.734375 C 20.015625 -34.734375 22.5 -34.238281 24.65625 -33.25 C 26.820312 -32.269531 28.484375 -30.921875 29.640625 -29.203125 C 30.804688 -27.492188 31.390625 -25.546875 31.390625 -23.359375 L 31.390625 -1.078125 C 31.390625 -0.359375 31.03125 0 30.3125 0 L 24.6875 0 C 23.976562 0 23.625 -0.359375 23.625 -1.078125 L 23.625 -2.75 C 23.625 -2.925781 23.578125 -3.023438 23.484375 -3.046875 C 23.398438 -3.066406 23.289062 -3.03125 23.15625 -2.9375 C 20.75 -0.625 17.535156 0.53125 13.515625 0.53125 C 10.210938 0.53125 7.5 -0.3125 5.375 -2 C 3.257812 -3.695312 2.203125 -6.21875 2.203125 -9.5625 C 2.203125 -13.050781 3.414062 -15.765625 5.84375 -17.703125 C 8.28125 -19.640625 11.707031 -20.609375 16.125 -20.609375 L 23.21875 -20.609375 C 23.488281 -20.609375 23.625 -20.742188 23.625 -21.015625 L 23.625 -22.546875 C 23.625 -24.285156 23.097656 -25.632812 22.046875 -26.59375 C 21.003906 -27.5625 19.457031 -28.046875 17.40625 -28.046875 C 15.84375 -28.046875 14.546875 -27.765625 13.515625 -27.203125 C 12.492188 -26.648438 11.800781 -25.878906 11.4375 -24.890625 C 11.257812 -24.265625 10.859375 -23.976562 10.234375 -24.03125 L 4.21875 -24.765625 C 3.863281 -24.804688 3.59375 -24.90625 3.40625 -25.0625 C 3.226562 -25.21875 3.164062 -25.40625 3.21875 -25.625 C 3.613281 -28.300781 5.09375 -30.488281 7.65625 -32.1875 C 10.226562 -33.882812 13.410156 -34.734375 17.203125 -34.734375 Z M 15.65625 -5.625 C 17.84375 -5.625 19.71875 -6.203125 21.28125 -7.359375 C 22.84375 -8.515625 23.625 -9.988281 23.625 -11.78125 L 23.625 -14.859375 C 23.625 -15.128906 23.488281 -15.265625 23.21875 -15.265625 L 17.671875 -15.265625 C 15.304688 -15.265625 13.429688 -14.816406 12.046875 -13.921875 C 10.660156 -13.023438 9.96875 -11.753906 9.96875 -10.109375 C 9.96875 -8.679688 10.503906 -7.578125 11.578125 -6.796875 C 12.648438 -6.015625 14.007812 -5.625 15.65625 -5.625 Z M 15.65625 -5.625 "/></g></g></g><g fill="#ffffff" fill-opacity="1"><g transform="translate(100.154671, 53.491149)"><g><path d="M 20.546875 -34.734375 C 24.203125 -34.734375 27.113281 -33.660156 29.28125 -31.515625 C 31.445312 -29.378906 32.53125 -26.457031 32.53125 -22.75 L 32.53125 -1.078125 C 32.53125 -0.359375 32.171875 0 31.453125 0 L 25.828125 0 C 25.117188 0 24.765625 -0.359375 24.765625 -1.078125 L 24.765625 -21.140625 C 24.765625 -23.191406 24.171875 -24.851562 22.984375 -26.125 C 21.804688 -27.40625 20.257812 -28.046875 18.34375 -28.046875 C 16.414062 -28.046875 14.859375 -27.421875 13.671875 -26.171875 C 12.492188 -24.921875 11.90625 -23.269531 11.90625 -21.21875 L 11.90625 -1.078125 C 11.90625 -0.359375 11.550781 0 10.84375 0 L 5.21875 0 C 4.507812 0 4.15625 -0.359375 4.15625 -1.078125 L 4.15625 -45.78125 C 4.15625 -46.488281 4.507812 -46.84375 5.21875 -46.84375 L 10.84375 -46.84375 C 11.550781 -46.84375 11.90625 -46.488281 11.90625 -45.78125 L 11.90625 -31.3125 C 11.90625 -31.132812 11.953125 -31.023438 12.046875 -30.984375 C 12.140625 -30.941406 12.226562 -30.988281 12.3125 -31.125 C 14.1875 -33.53125 16.929688 -34.734375 20.546875 -34.734375 Z M 20.546875 -34.734375 "/></g></g></g><g fill="#ffffff" fill-opacity="1"><g transform="translate(136.228203, 53.491149)"><g><path d="M 17.203125 -34.734375 C 20.015625 -34.734375 22.5 -34.238281 24.65625 -33.25 C 26.820312 -32.269531 28.484375 -30.921875 29.640625 -29.203125 C 30.804688 -27.492188 31.390625 -25.546875 31.390625 -23.359375 L 31.390625 -1.078125 C 31.390625 -0.359375 31.03125 0 30.3125 0 L 24.6875 0 C 23.976562 0 23.625 -0.359375 23.625 -1.078125 L 23.625 -2.75 C 23.625 -2.925781 23.578125 -3.023438 23.484375 -3.046875 C 23.398438 -3.066406 23.289062 -3.03125 23.15625 -2.9375 C 20.75 -0.625 17.535156 0.53125 13.515625 0.53125 C 10.210938 0.53125 7.5 -0.3125 5.375 -2 C 3.257812 -3.695312 2.203125 -6.21875 2.203125 -9.5625 C 2.203125 -13.050781 3.414062 -15.765625 5.84375 -17.703125 C 8.28125 -19.640625 11.707031 -20.609375 16.125 -20.609375 L 23.21875 -20.609375 C 23.488281 -20.609375 23.625 -20.742188 23.625 -21.015625 L 23.625 -22.546875 C 23.625 -24.285156 23.097656 -25.632812 22.046875 -26.59375 C 21.003906 -27.5625 19.457031 -28.046875 17.40625 -28.046875 C 15.84375 -28.046875 14.546875 -27.765625 13.515625 -27.203125 C 12.492188 -26.648438 11.800781 -25.878906 11.4375 -24.890625 C 11.257812 -24.265625 10.859375 -23.976562 10.234375 -24.03125 L 4.21875 -24.765625 C 3.863281 -24.804688 3.59375 -24.90625 3.40625 -25.0625 C 3.226562 -25.21875 3.164062 -25.40625 3.21875 -25.625 C 3.613281 -28.300781 5.09375 -30.488281 7.65625 -32.1875 C 10.226562 -33.882812 13.410156 -34.734375 17.203125 -34.734375 Z M 15.65625 -5.625 C 17.84375 -5.625 19.71875 -6.203125 21.28125 -7.359375 C 22.84375 -8.515625 23.625 -9.988281 23.625 -11.78125 L 23.625 -14.859375 C 23.625 -15.128906 23.488281 -15.265625 23.21875 -15.265625 L 17.671875 -15.265625 C 15.304688 -15.265625 13.429688 -14.816406 12.046875 -13.921875 C 10.660156 -13.023438 9.96875 -11.753906 9.96875 -10.109375 C 9.96875 -8.679688 10.503906 -7.578125 11.578125 -6.796875 C 12.648438 -6.015625 14.007812 -5.625 15.65625 -5.625 Z M 15.65625 -5.625 "/></g></g></g><g fill="#ffffff" fill-opacity="1"><g transform="translate(170.82934, 53.491149)"><g><path d="M 40.75 -34.734375 C 44.1875 -34.734375 46.875 -33.695312 48.8125 -31.625 C 50.757812 -29.550781 51.734375 -26.660156 51.734375 -22.953125 L 51.734375 -1.078125 C 51.734375 -0.359375 51.375 0 50.65625 0 L 45.109375 0 C 44.390625 0 44.03125 -0.359375 44.03125 -1.078125 L 44.03125 -21.34375 C 44.03125 -23.394531 43.484375 -25.023438 42.390625 -26.234375 C 41.296875 -27.441406 39.835938 -28.046875 38.015625 -28.046875 C 36.179688 -28.046875 34.679688 -27.441406 33.515625 -26.234375 C 32.359375 -25.023438 31.78125 -23.421875 31.78125 -21.421875 L 31.78125 -1.078125 C 31.78125 -0.359375 31.425781 0 30.71875 0 L 25.15625 0 C 24.445312 0 24.09375 -0.359375 24.09375 -1.078125 L 24.09375 -21.34375 C 24.09375 -23.394531 23.535156 -25.023438 22.421875 -26.234375 C 21.304688 -27.441406 19.832031 -28.046875 18 -28.046875 C 16.300781 -28.046875 14.90625 -27.550781 13.8125 -26.5625 C 12.726562 -25.582031 12.09375 -24.242188 11.90625 -22.546875 L 11.90625 -1.078125 C 11.90625 -0.359375 11.550781 0 10.84375 0 L 5.21875 0 C 4.507812 0 4.15625 -0.359375 4.15625 -1.078125 L 4.15625 -33.125 C 4.15625 -33.84375 4.507812 -34.203125 5.21875 -34.203125 L 10.84375 -34.203125 C 11.550781 -34.203125 11.90625 -33.84375 11.90625 -33.125 L 11.90625 -31.3125 C 11.90625 -31.132812 11.960938 -31.023438 12.078125 -30.984375 C 12.191406 -30.941406 12.289062 -31.007812 12.375 -31.1875 C 14.300781 -33.550781 17.113281 -34.734375 20.8125 -34.734375 C 23 -34.734375 24.90625 -34.296875 26.53125 -33.421875 C 28.164062 -32.554688 29.425781 -31.273438 30.3125 -29.578125 C 30.40625 -29.441406 30.503906 -29.375 30.609375 -29.375 C 30.722656 -29.375 30.800781 -29.460938 30.84375 -29.640625 C 31.875 -31.335938 33.257812 -32.609375 35 -33.453125 C 36.738281 -34.304688 38.65625 -34.734375 40.75 -34.734375 Z M 40.75 -34.734375 "/></g></g></g></g></g></g></svg>