<svg xmlns="http://www.w3.org/2000/svg" xmlns:xlink="http://www.w3.org/1999/xlink" width="500" zoomAndPan="magnify" viewBox="0 0 375 73.499998" height="98" preserveAspectRatio="xMidYMid meet" version="1.0"><defs><g/><clipPath id="0b25a8610e"><path d="M 30.644531 0.328125 L 36.703125 0.328125 L 36.703125 34.765625 L 30.644531 34.765625 Z M 30.644531 0.328125 " clip-rule="nonzero"/></clipPath><clipPath id="c1cfe936eb"><path d="M 32.199219 0.328125 L 35.144531 0.328125 C 36.003906 0.328125 36.703125 1.027344 36.703125 1.886719 L 36.703125 33.1875 C 36.703125 34.046875 36.003906 34.742188 35.144531 34.742188 L 32.199219 34.742188 C 31.339844 34.742188 30.644531 34.046875 30.644531 33.1875 L 30.644531 1.886719 C 30.644531 1.027344 31.339844 0.328125 32.199219 0.328125 Z M 32.199219 0.328125 " clip-rule="nonzero"/></clipPath><clipPath id="c4735a6cd0"><path d="M 32.199219 0.328125 L 35.144531 0.328125 C 36.003906 0.328125 36.703125 1.027344 36.703125 1.886719 L 36.703125 33.1875 C 36.703125 34.046875 36.003906 34.742188 35.144531 34.742188 L 32.199219 34.742188 C 31.339844 34.742188 30.644531 34.046875 30.644531 33.1875 L 30.644531 1.886719 C 30.644531 1.027344 31.339844 0.328125 32.199219 0.328125 Z M 32.199219 0.328125 " clip-rule="nonzero"/></clipPath><clipPath id="f81348816a"><path d="M 4.421875 31.179688 L 36.703125 31.179688 L 36.703125 37.238281 L 4.421875 37.238281 Z M 4.421875 31.179688 " clip-rule="nonzero"/></clipPath><clipPath id="8732bb7713"><path d="M 4.421875 35.679688 L 4.421875 32.738281 C 4.421875 31.875 5.121094 31.179688 5.980469 31.179688 L 35.144531 31.179688 C 36.003906 31.179688 36.703125 31.875 36.703125 32.738281 L 36.703125 35.679688 C 36.703125 36.542969 36.003906 37.238281 35.144531 37.238281 L 5.980469 37.238281 C 5.121094 37.238281 4.421875 36.542969 4.421875 35.679688 Z M 4.421875 35.679688 " clip-rule="nonzero"/></clipPath><clipPath id="0f5196662c"><path d="M 4.421875 35.679688 L 4.421875 32.738281 C 4.421875 31.875 5.121094 31.179688 5.980469 31.179688 L 35.144531 31.179688 C 36.003906 31.179688 36.703125 31.875 36.703125 32.738281 L 36.703125 35.679688 C 36.703125 36.542969 36.003906 37.238281 35.144531 37.238281 L 5.980469 37.238281 C 5.121094 37.238281 4.421875 36.542969 4.421875 35.679688 Z M 4.421875 35.679688 " clip-rule="nonzero"/></clipPath><clipPath id="07957bc257"><path d="M 10.136719 31.753906 L 37.3125 31.753906 L 37.3125 58.929688 L 10.136719 58.929688 Z M 10.136719 31.753906 " clip-rule="nonzero"/></clipPath><clipPath id="2affba28f4"><path d="M 33.582031 31.183594 L 37.867188 35.464844 L 13.871094 59.464844 L 9.585938 55.179688 Z M 33.582031 31.183594 " clip-rule="nonzero"/></clipPath><clipPath id="89a30291a2"><path d="M 34.683594 32.28125 L 36.765625 34.363281 C 37.375 34.972656 37.375 35.957031 36.765625 36.566406 L 14.976562 58.355469 C 14.371094 58.964844 13.382812 58.964844 12.777344 58.355469 L 10.695312 56.273438 C 10.085938 55.664062 10.085938 54.679688 10.695312 54.070312 L 32.484375 32.28125 C 33.089844 31.675781 34.078125 31.675781 34.683594 32.28125 Z M 34.683594 32.28125 " clip-rule="nonzero"/></clipPath><clipPath id="f4b393c97f"><path d="M 33.582031 31.183594 L 37.867188 35.464844 L 13.871094 59.464844 L 9.585938 55.179688 Z M 33.582031 31.183594 " clip-rule="nonzero"/></clipPath><clipPath id="14138f288a"><path d="M 34.683594 32.28125 L 36.765625 34.363281 C 37.375 34.972656 37.375 35.957031 36.765625 36.566406 L 14.976562 58.355469 C 14.371094 58.964844 13.382812 58.964844 12.777344 58.355469 L 10.695312 56.273438 C 10.085938 55.664062 10.085938 54.679688 10.695312 54.070312 L 32.484375 32.28125 C 33.089844 31.675781 34.078125 31.675781 34.683594 32.28125 Z M 34.683594 32.28125 " clip-rule="nonzero"/></clipPath><clipPath id="291e13c41a"><path d="M 36.597656 36.101562 L 42.65625 36.101562 L 42.65625 70.535156 L 36.597656 70.535156 Z M 36.597656 36.101562 " clip-rule="nonzero"/></clipPath><clipPath id="470b4713a8"><path d="M 41.101562 70.535156 L 38.15625 70.535156 C 37.296875 70.535156 36.597656 69.835938 36.597656 68.976562 L 36.597656 37.675781 C 36.597656 36.816406 37.296875 36.121094 38.15625 36.121094 L 41.101562 36.121094 C 41.960938 36.121094 42.65625 36.816406 42.65625 37.675781 L 42.65625 68.976562 C 42.65625 69.835938 41.960938 70.535156 41.101562 70.535156 Z M 41.101562 70.535156 " clip-rule="nonzero"/></clipPath><clipPath id="de4b8b1c37"><path d="M 41.101562 70.535156 L 38.15625 70.535156 C 37.296875 70.535156 36.597656 69.835938 36.597656 68.976562 L 36.597656 37.675781 C 36.597656 36.816406 37.296875 36.121094 38.15625 36.121094 L 41.101562 36.121094 C 41.960938 36.121094 42.65625 36.816406 42.65625 37.675781 L 42.65625 68.976562 C 42.65625 69.835938 41.960938 70.535156 41.101562 70.535156 Z M 41.101562 70.535156 " clip-rule="nonzero"/></clipPath><clipPath id="e06bbcd1d7"><path d="M 36.597656 33.625 L 68.878906 33.625 L 68.878906 39.683594 L 36.597656 39.683594 Z M 36.597656 33.625 " clip-rule="nonzero"/></clipPath><clipPath id="978ccf6050"><path d="M 68.878906 35.183594 L 68.878906 38.128906 C 68.878906 38.988281 68.179688 39.683594 67.320312 39.683594 L 38.15625 39.683594 C 37.296875 39.683594 36.597656 38.988281 36.597656 38.128906 L 36.597656 35.183594 C 36.597656 34.324219 37.296875 33.625 38.15625 33.625 L 67.320312 33.625 C 68.179688 33.625 68.878906 34.324219 68.878906 35.183594 Z M 68.878906 35.183594 " clip-rule="nonzero"/></clipPath><clipPath id="1ae0f1a3aa"><path d="M 68.878906 35.183594 L 68.878906 38.128906 C 68.878906 38.988281 68.179688 39.683594 67.320312 39.683594 L 38.15625 39.683594 C 37.296875 39.683594 36.597656 38.988281 36.597656 38.128906 L 36.597656 35.183594 C 36.597656 34.324219 37.296875 33.625 38.15625 33.625 L 67.320312 33.625 C 68.179688 33.625 68.878906 34.324219 68.878906 35.183594 Z M 68.878906 35.183594 " clip-rule="nonzero"/></clipPath><clipPath id="0c3e1aa6db"><path d="M 36 12 L 63.164062 12 L 63.164062 39.113281 L 36 39.113281 Z M 36 12 " clip-rule="nonzero"/></clipPath><clipPath id="93156e59ff"><path d="M 39.71875 39.683594 L 35.433594 35.398438 L 59.429688 11.402344 L 63.714844 15.6875 Z M 39.71875 39.683594 " clip-rule="nonzero"/></clipPath><clipPath id="0198c5fe21"><path d="M 38.617188 38.582031 L 36.535156 36.5 C 35.925781 35.890625 35.925781 34.90625 36.535156 34.296875 L 58.324219 12.507812 C 58.929688 11.902344 59.917969 11.902344 60.523438 12.507812 L 62.605469 14.589844 C 63.214844 15.199219 63.214844 16.183594 62.605469 16.792969 L 40.820312 38.582031 C 40.210938 39.191406 39.226562 39.191406 38.617188 38.582031 Z M 38.617188 38.582031 " clip-rule="nonzero"/></clipPath><clipPath id="8eadf2cb1f"><path d="M 39.71875 39.683594 L 35.433594 35.398438 L 59.429688 11.402344 L 63.714844 15.6875 Z M 39.71875 39.683594 " clip-rule="nonzero"/></clipPath><clipPath id="63fb824cab"><path d="M 38.617188 38.582031 L 36.535156 36.5 C 35.925781 35.890625 35.925781 34.90625 36.535156 34.296875 L 58.324219 12.507812 C 58.929688 11.902344 59.917969 11.902344 60.523438 12.507812 L 62.605469 14.589844 C 63.214844 15.199219 63.214844 16.183594 62.605469 16.792969 L 40.820312 38.582031 C 40.210938 39.191406 39.226562 39.191406 38.617188 38.582031 Z M 38.617188 38.582031 " clip-rule="nonzero"/></clipPath><clipPath id="2b761b0a32"><path d="M 87 12 L 373.730469 12 L 373.730469 69 L 87 69 Z M 87 12 " clip-rule="nonzero"/></clipPath><clipPath id="b03dab8988"><rect x="0" width="287" y="0" height="57"/></clipPath></defs><g clip-path="url(#0b25a8610e)"><g clip-path="url(#c1cfe936eb)"><g clip-path="url(#c4735a6cd0)"><path fill="#ffffff" d="M 30.644531 0.328125 L 36.703125 0.328125 L 36.703125 34.742188 L 30.644531 34.742188 Z M 30.644531 0.328125 " fill-opacity="1" fill-rule="nonzero"/></g></g></g><g clip-path="url(#f81348816a)"><g clip-path="url(#8732bb7713)"><g clip-path="url(#0f5196662c)"><path fill="#ffffff" d="M 4.421875 31.179688 L 36.703125 31.179688 L 36.703125 37.238281 L 4.421875 37.238281 Z M 4.421875 31.179688 " fill-opacity="1" fill-rule="nonzero"/></g></g></g><g clip-path="url(#07957bc257)"><g clip-path="url(#2affba28f4)"><g clip-path="url(#89a30291a2)"><g clip-path="url(#f4b393c97f)"><g clip-path="url(#14138f288a)"><path fill="#ffffff" d="M 33.582031 31.183594 L 37.867188 35.464844 L 13.871094 59.464844 L 9.585938 55.179688 Z M 33.582031 31.183594 " fill-opacity="1" fill-rule="nonzero"/></g></g></g></g></g><g clip-path="url(#291e13c41a)"><g clip-path="url(#470b4713a8)"><g clip-path="url(#de4b8b1c37)"><path fill="#ffffff" d="M 36.597656 36.125 L 42.65625 36.125 L 42.65625 70.535156 L 36.597656 70.535156 Z M 36.597656 36.125 " fill-opacity="1" fill-rule="nonzero"/></g></g></g><g clip-path="url(#e06bbcd1d7)"><g clip-path="url(#978ccf6050)"><g clip-path="url(#1ae0f1a3aa)"><path fill="#ffffff" d="M 36.597656 33.625 L 68.878906 33.625 L 68.878906 39.683594 L 36.597656 39.683594 Z M 36.597656 33.625 " fill-opacity="1" fill-rule="nonzero"/></g></g></g><g clip-path="url(#0c3e1aa6db)"><g clip-path="url(#93156e59ff)"><g clip-path="url(#0198c5fe21)"><g clip-path="url(#8eadf2cb1f)"><g clip-path="url(#63fb824cab)"><path fill="#ffffff" d="M 39.71875 39.683594 L 35.433594 35.398438 L 59.429688 11.402344 L 63.714844 15.6875 Z M 39.71875 39.683594 " fill-opacity="1" fill-rule="nonzero"/></g></g></g></g></g><g clip-path="url(#2b761b0a32)"><g transform="matrix(1, 0, 0, 1, 87, 12)"><g clip-path="url(#b03dab8988)"><g fill="#ffffff" fill-opacity="1"><g transform="translate(0.73947, 42.67561)"><g><path d="M 6.046875 0 L 6.046875 -38.984375 L 23.4375 -38.984375 C 27.6875 -38.984375 30.910156 -38.019531 33.109375 -36.09375 C 35.304688 -34.175781 36.40625 -31.5 36.40625 -28.0625 C 36.40625 -24.726562 35.304688 -22.035156 33.109375 -19.984375 C 30.910156 -17.929688 27.6875 -16.90625 23.4375 -16.90625 L 11.359375 -16.90625 L 11.359375 0 Z M 23.609375 -34.046875 L 11.359375 -34.046875 L 11.359375 -21.859375 L 23.609375 -21.859375 C 26.054688 -21.859375 27.882812 -22.421875 29.09375 -23.546875 C 30.300781 -24.679688 30.90625 -26.148438 30.90625 -27.953125 C 30.90625 -29.890625 30.300781 -31.390625 29.09375 -32.453125 C 27.882812 -33.515625 26.054688 -34.046875 23.609375 -34.046875 Z M 23.609375 -34.046875 "/></g></g></g><g fill="#ffffff" fill-opacity="1"><g transform="translate(39.391521, 42.67561)"><g><path d="M 34.96875 -5 L 34.96875 0 L 6.046875 0 L 6.046875 -38.984375 L 11.359375 -38.984375 L 11.359375 -5 Z M 34.96875 -5 "/></g></g></g><g fill="#ffffff" fill-opacity="1"><g transform="translate(75.408184, 42.67561)"><g><path d="M 6.046875 0 L 6.046875 -38.984375 L 34.046875 -38.984375 L 34.046875 -34.046875 L 11.3125 -34.046875 L 11.3125 -23.171875 L 24.703125 -23.171875 L 24.703125 -18.234375 L 11.3125 -18.234375 L 11.3125 -4.9375 L 36.078125 -4.9375 L 36.078125 0 Z M 6.046875 0 "/></g></g></g><g fill="#ffffff" fill-opacity="1"><g transform="translate(112.797444, 42.67561)"><g><path d="M 6.046875 0 L 6.046875 -38.984375 L 23.609375 -38.984375 C 27.742188 -38.984375 30.910156 -38.066406 33.109375 -36.234375 C 35.304688 -34.410156 36.40625 -31.757812 36.40625 -28.28125 C 36.40625 -25.5 35.671875 -23.238281 34.203125 -21.5 C 32.742188 -19.757812 30.660156 -18.597656 27.953125 -18.015625 L 38.21875 0 L 32.453125 0 L 22.234375 -17.5625 L 11.359375 -17.5625 L 11.359375 0 Z M 23.5625 -34.046875 L 11.359375 -34.046875 L 11.359375 -22.453125 L 23.5625 -22.453125 C 25.9375 -22.453125 27.753906 -22.914062 29.015625 -23.84375 C 30.273438 -24.78125 30.90625 -26.257812 30.90625 -28.28125 C 30.90625 -30.25 30.273438 -31.703125 29.015625 -32.640625 C 27.753906 -33.578125 25.9375 -34.046875 23.5625 -34.046875 Z M 23.5625 -34.046875 "/></g></g></g><g fill="#ffffff" fill-opacity="1"><g transform="translate(152.986795, 42.67561)"><g><path d="M 21.46875 0.65625 C 17.882812 0.65625 14.773438 -0.21875 12.140625 -1.96875 C 9.503906 -3.726562 7.476562 -6.128906 6.0625 -9.171875 C 4.65625 -12.210938 3.953125 -15.648438 3.953125 -19.484375 C 3.953125 -23.328125 4.664062 -26.769531 6.09375 -29.8125 C 7.519531 -32.851562 9.550781 -35.25 12.1875 -37 C 14.820312 -38.757812 17.914062 -39.640625 21.46875 -39.640625 C 25.019531 -39.640625 28.101562 -38.757812 30.71875 -37 C 33.332031 -35.25 35.363281 -32.851562 36.8125 -29.8125 C 38.257812 -26.769531 38.984375 -23.328125 38.984375 -19.484375 C 38.984375 -15.648438 38.257812 -12.210938 36.8125 -9.171875 C 35.363281 -6.128906 33.332031 -3.726562 30.71875 -1.96875 C 28.101562 -0.21875 25.019531 0.65625 21.46875 0.65625 Z M 21.46875 -4.28125 C 24.0625 -4.28125 26.242188 -4.957031 28.015625 -6.3125 C 29.796875 -7.664062 31.15625 -9.492188 32.09375 -11.796875 C 33.03125 -14.109375 33.5 -16.671875 33.5 -19.484375 C 33.5 -22.304688 33.03125 -24.859375 32.09375 -27.140625 C 31.15625 -29.429688 29.796875 -31.265625 28.015625 -32.640625 C 26.242188 -34.015625 24.0625 -34.703125 21.46875 -34.703125 C 18.90625 -34.703125 16.726562 -34.023438 14.9375 -32.671875 C 13.144531 -31.316406 11.78125 -29.484375 10.84375 -27.171875 C 9.90625 -24.867188 9.4375 -22.304688 9.4375 -19.484375 C 9.4375 -16.628906 9.90625 -14.050781 10.84375 -11.75 C 11.78125 -9.445312 13.144531 -7.625 14.9375 -6.28125 C 16.726562 -4.945312 18.90625 -4.28125 21.46875 -4.28125 Z M 21.46875 -4.28125 "/></g></g></g><g fill="#ffffff" fill-opacity="1"><g transform="translate(194.878164, 42.67561)"><g><path d="M 14.21875 -38.984375 L 26.25 -7.90625 L 38.21875 -38.984375 L 46.171875 -38.984375 L 46.171875 0 L 41.125 0 L 41.125 -33.9375 L 27.84375 0.21875 L 24.15625 0.21875 L 10.984375 -33.609375 L 10.984375 0 L 6.046875 0 L 6.046875 -38.984375 Z M 14.21875 -38.984375 "/></g></g></g><g fill="#ffffff" fill-opacity="1"><g transform="translate(246.048274, 42.67561)"><g><path d="M 33.4375 0 L 29.59375 -9.390625 L 10.921875 -9.390625 L 7.078125 0 L 1.8125 0 L 18.0625 -39.203125 L 22.78125 -39.203125 L 39.03125 0 Z M 12.953125 -14.21875 L 27.5625 -14.21875 L 20.265625 -32.015625 Z M 12.953125 -14.21875 "/></g></g></g></g></g></g></svg>